<?xml version="1.0" encoding="iso-8859-1"?>
<!-- Uploaded to: SVG Repo, www.svgrepo.com, Generator: SVG Repo Mixer Tools -->
<svg version="1.1" id="Layer_1" xmlns="http://www.w3.org/2000/svg" xmlns:xlink="http://www.w3.org/1999/xlink" 
	 viewBox="0 0 512 512" xml:space="preserve">
<path style="fill:#455A64;" d="M438.734,163.943c-11.19-26.818-32.43-48.345-58.987-60.022l-1.932-26.992h-25.417
	C336.867,36.407,300.26,6.352,256.004,0c-44.264,6.352-80.871,36.407-96.403,76.929h-25.417l-1.932,26.983
	c-26.557,11.677-47.797,33.205-58.987,60.031c9.998,23.964,28.036,43.699,50.703,55.976l-7.187,100.649h278.445L388.04,219.92
	C410.698,207.642,428.736,187.907,438.734,163.943z"/>
<rect x="108.08" y="320.569" style="fill:#37474F;" width="295.848" height="121.82"/>
<path style="fill:#546E7A;" d="M403.928,451.09H108.08c-4.786,0-8.701-3.916-8.701-8.701l0,0c0-4.786,3.916-8.701,8.701-8.701
	h295.848c4.786,0,8.701,3.916,8.701,8.701l0,0C412.63,447.174,408.714,451.09,403.928,451.09z M412.63,320.569L412.63,320.569
	c0-4.786-3.916-8.701-8.701-8.701H108.08c-4.786,0-8.701,3.916-8.701,8.701l0,0c0,4.786,3.916,8.701,8.701,8.701h295.848
	C408.714,329.27,412.63,325.355,412.63,320.569z"/>
<polygon style="fill:#263238;" points="412.63,485.896 99.379,485.896 99.379,459.792 108.08,451.09 403.928,451.09 412.63,459.792 
	"/>
<path style="fill:#004D40;" d="M438.734,512H73.275v-8.701c0-14.418,11.686-26.104,26.104-26.104H412.63
	c14.418,0,26.104,11.686,26.104,26.104V512z"/>
<g>
	<path style="fill:#ECEFF1;" d="M321.265,137.839h-26.104c-2.402,0-4.351,1.949-4.351,4.351s1.949,4.351,4.351,4.351h4.351v21.754
		v21.754h-4.351c-2.402,0-4.351,1.949-4.351,4.351s1.949,4.351,4.351,4.351h17.403c2.402,0,4.351-1.949,4.351-4.351
		s-1.949-4.351-4.351-4.351h-4.351v-17.403h13.052c9.589,0,17.403-7.805,17.403-17.403
		C338.668,145.644,330.854,137.839,321.265,137.839z M321.265,163.943h-13.052v-17.403h13.052c4.803,0,8.701,3.898,8.701,8.701
		S326.059,163.943,321.265,163.943z"/>
	<path style="fill:#ECEFF1;" d="M273.407,146.541c2.402,0,4.351-1.949,4.351-4.351s-1.949-4.351-4.351-4.351h-26.104
		c-2.402,0-4.351,1.949-4.351,4.351s1.949,4.351,4.351,4.351h8.701v43.507h-8.701c-2.402,0-4.351,1.949-4.351,4.351
		s1.949,4.351,4.351,4.351h26.104c2.402,0,4.351-1.949,4.351-4.351s-1.949-4.351-4.351-4.351h-8.701v-43.507H273.407z"/>
	<path style="fill:#ECEFF1;" d="M223.792,190.074h-1.801c-3.776-7.274-8.754-13.844-14.845-19.308
		c5.717-2.854,9.693-8.71,9.693-15.523c0-9.598-7.814-17.403-17.403-17.403h-26.104c-2.402,0-4.351,1.949-4.351,4.351
		s1.949,4.351,4.351,4.351h4.351v21.754v21.754h-4.351c-2.402,0-4.351,1.949-4.351,4.351s1.949,4.351,4.351,4.351h17.403
		c2.402,0,4.351-1.949,4.351-4.351s-1.949-4.351-4.351-4.351h-4.351v-17.403h9.093c8.649,6.013,15.584,14.114,20.022,23.616
		c0.026,0.061,0.096,0.078,0.122,0.139c0.313,0.6,0.766,1.088,1.314,1.488c0.148,0.104,0.278,0.209,0.444,0.296
		c0.627,0.348,1.305,0.592,2.071,0.592h4.351c2.402,0,4.351-1.949,4.351-4.351C228.142,192.014,226.202,190.074,223.792,190.074z
		 M199.445,146.541c4.803,0,8.701,3.898,8.701,8.701s-3.898,8.701-8.701,8.701h-13.052v-17.403H199.445z"/>
</g>
</svg>